<svg width="59" height="57" viewBox="0 0 59 57" fill="none" xmlns="http://www.w3.org/2000/svg">
<path d="M5.17488 3.33984C5.17488 3.33984 11.5627 10.5151 34.0257 12.4714C34.9384 12.5512 35.7921 12.9413 36.4349 13.5723C37.0776 14.2033 37.4678 15.0342 37.5359 15.9171C38.0233 22.2221 38.9762 37.2054 38.7193 55.3233H18.9812L19.136 47.5355L8.76555 47.4607C8.76555 47.4607 8.069 32.9555 7.99161 22.0394C7.99161 22.0394 3.96729 20.6928 3.8125 15.2725H7.99161C7.99161 15.2725 3.36427 11.2578 5.17488 3.33984Z" fill="url(#paint0_radial_702_5205)"/>
<path d="M19.1362 47.5361H27.4202C27.6344 47.5361 27.8431 47.6022 28.0157 47.7248C28.1884 47.8474 28.3159 48.0202 28.3797 48.2178C28.4436 48.4154 28.4404 48.6275 28.3706 48.8232C28.3008 49.0189 28.1681 49.188 27.9918 49.3057L18.9814 55.324L19.1362 47.5361Z" fill="#C65454"/>
<path d="M32.3406 24.1456C32.247 24.1757 32.1482 24.1877 32.0498 24.181C31.9514 24.1742 31.8554 24.1488 31.7672 24.1062C31.679 24.0636 31.6003 24.0046 31.5357 23.9326C31.4711 23.8606 31.4218 23.777 31.3906 23.6866C31.3594 23.5962 31.3469 23.5008 31.3539 23.4057C31.3609 23.3107 31.3872 23.2179 31.4313 23.1327C31.5204 22.9606 31.6766 22.8297 31.8656 22.7689C32.3956 22.6135 32.9461 22.5329 33.4999 22.5296C33.599 22.529 33.6967 22.5063 33.7853 22.4634C33.8739 22.4204 33.951 22.3582 34.0107 22.2818C34.0705 22.2053 34.1111 22.1166 34.1296 22.0225C34.148 21.9284 34.1438 21.8314 34.1172 21.7392C33.962 21.2066 33.7703 20.6847 33.5435 20.1767C33.4236 19.9081 33.2197 19.6824 32.9604 19.5313C32.7011 19.3803 32.3993 19.3114 32.0974 19.3344C31.3153 19.3985 30.5587 19.6343 29.8853 20.024C29.7201 20.1315 29.5174 20.1712 29.3219 20.1344C29.1264 20.0976 28.954 19.9873 28.8427 19.8277C28.7314 19.6681 28.6903 19.4723 28.7284 19.2834C28.7665 19.0945 28.8807 18.928 29.0459 18.8204C29.6264 18.4706 30.2609 18.2125 30.9256 18.0558C31.0446 18.0279 31.1536 17.9694 31.241 17.8866C31.3285 17.8038 31.3911 17.6997 31.4224 17.5853C31.4536 17.4709 31.4523 17.3505 31.4185 17.2368C31.3847 17.123 31.3198 17.0202 31.2305 16.9393C30.9906 16.7211 30.7386 16.5158 30.4755 16.3243C29.8309 15.858 29.0903 15.5306 28.3037 15.3642C27.517 15.1978 26.7026 15.1963 25.9153 15.3597L25.862 15.3708C25.591 15.4276 25.335 15.538 25.1103 15.695C24.8855 15.8519 24.6968 16.0521 24.5559 16.2829C24.4151 16.5137 24.3251 16.7702 24.2918 17.0362C24.2584 17.3022 24.2823 17.572 24.362 17.8286C24.4705 18.1901 24.5595 18.5567 24.6286 18.9271C24.6509 19.0404 24.7061 19.1453 24.7878 19.2295C24.8695 19.3137 24.9743 19.3737 25.09 19.4025C25.5745 19.5254 26.0347 19.7248 26.452 19.9926C26.6226 20.0968 26.745 20.2606 26.7935 20.4499C26.842 20.6391 26.8129 20.8392 26.7123 21.0082C26.6584 21.0915 26.5876 21.1632 26.5041 21.2193C26.4206 21.2753 26.3263 21.3143 26.2267 21.334C26.1271 21.3538 26.0245 21.3538 25.9249 21.3341C25.8254 21.3143 25.731 21.2753 25.6475 21.2193C24.175 20.2322 21.9687 20.8555 21.9472 20.8619C21.7566 20.9179 21.5508 20.8985 21.3751 20.808C21.1993 20.7174 21.068 20.5631 21.01 20.379C20.9519 20.1949 20.972 19.9961 21.0657 19.8263C21.1595 19.6565 21.3192 19.5296 21.5097 19.4736C21.8226 19.3875 22.1416 19.3238 22.4641 19.283C22.5529 19.2716 22.6382 19.2423 22.7144 19.1969C22.7907 19.1515 22.8561 19.091 22.9065 19.0195C22.9569 18.948 22.9912 18.8671 23.007 18.7819C23.0228 18.6968 23.0198 18.6093 22.9983 18.5254C22.8417 17.926 22.6179 17.345 22.3309 16.7926C22.1723 16.491 21.9358 16.2341 21.6442 16.0469C21.3526 15.8596 21.0159 15.7483 20.6667 15.7238C20.6181 15.7205 20.5688 15.7178 20.5187 15.7159C19.4502 15.6637 18.3971 15.9792 17.5467 16.6063C17.1838 16.8639 16.8783 17.1894 16.6484 17.5634C16.4184 17.9374 16.2687 18.3523 16.208 18.7834C16.208 18.7834 12.6599 18.3547 12.026 21.6656C12.026 21.6656 11.6442 24.13 14.1281 24.7576L16.632 25.2879C16.7373 25.3103 16.8462 25.3117 16.952 25.2919C17.0578 25.2721 17.1583 25.2316 17.2474 25.1729C17.3364 25.1142 17.4121 25.0385 17.4697 24.9505C17.5273 24.8624 17.5656 24.764 17.5824 24.6611C17.6545 24.0547 17.5881 23.4405 17.3879 22.8616C17.3187 22.6811 17.3266 22.4815 17.4098 22.3066C17.493 22.1318 17.6447 21.996 17.8315 21.9292C18.0183 21.8624 18.2249 21.87 18.4059 21.9504C18.5869 22.0308 18.7274 22.1773 18.7966 22.3578C19.1053 23.2168 19.1919 24.1358 19.0489 25.0346C19.0094 25.2303 19.0505 25.4331 19.1634 25.5999C19.2763 25.7668 19.4521 25.8845 19.6535 25.928L23.8642 26.8199C23.999 26.8484 24.1391 26.8442 24.2719 26.8076C24.4047 26.7709 24.526 26.7031 24.6249 26.61C24.7239 26.517 24.7974 26.4017 24.8389 26.2745C24.8804 26.1473 24.8885 26.0121 24.8627 25.8811L24.782 25.4737C24.7614 25.3793 24.7604 25.282 24.7792 25.1873C24.798 25.0926 24.8362 25.0024 24.8915 24.9222C24.9467 24.8419 25.018 24.773 25.1011 24.7197C25.1842 24.6663 25.2775 24.6295 25.3756 24.6113C25.4736 24.5932 25.5744 24.5941 25.672 24.614C25.7697 24.6339 25.8622 24.6725 25.9443 24.7273C26.0263 24.7822 26.0963 24.8524 26.1499 24.9336C26.2036 25.0149 26.24 25.1057 26.257 25.2007L26.5934 26.8983C26.6241 27.0533 26.7012 27.1962 26.8152 27.3093C26.9291 27.4223 27.0749 27.5006 27.2345 27.5344L31.5107 28.4397C31.9039 28.5226 32.3115 28.518 32.7026 28.4264C33.0938 28.3347 33.4582 28.1584 33.7684 27.9106C34.0786 27.6629 34.3264 27.3503 34.4932 26.9964C34.6599 26.6425 34.7412 26.2567 34.7309 25.868C34.7205 25.4621 34.6962 25.0307 34.653 24.5826C34.6414 24.4468 34.5837 24.3184 34.4888 24.2176C34.3939 24.1167 34.2671 24.0489 34.1283 24.0249C33.5302 23.9431 32.921 23.9842 32.3406 24.1456Z" fill="url(#paint1_linear_702_5205)"/>
<path d="M24.7266 41.6464C24.5737 41.6465 24.4242 41.6031 24.2966 41.5218C24.169 41.4405 24.0689 41.3248 24.0087 41.1891C23.9792 41.1287 23.1442 39.4714 19.9426 39.4714C16.6629 39.4714 15.513 41.2077 15.4655 41.282C15.3582 41.4514 15.1861 41.5731 14.9865 41.6206C14.7869 41.6682 14.576 41.6378 14.3994 41.5361C14.2229 41.4344 14.095 41.2695 14.0435 41.0772C13.992 40.885 14.021 40.6808 14.1243 40.5091C14.1876 40.4052 15.7258 37.9629 19.9426 37.9629C24.2272 37.9629 25.3964 40.4875 25.4434 40.595C25.4944 40.7097 25.5151 40.8348 25.5036 40.9592C25.4922 41.0835 25.449 41.2032 25.3779 41.3074C25.3068 41.4117 25.21 41.4973 25.0962 41.5565C24.9825 41.6157 24.8553 41.6467 24.7261 41.6468L24.7266 41.6464Z" fill="#C65454"/>
<path d="M51.7997 2.85029C52.1352 2.85029 52.4071 2.58758 52.4071 2.26352C52.4071 1.93946 52.1352 1.67676 51.7997 1.67676C51.4643 1.67676 51.1924 1.93946 51.1924 2.26352C51.1924 2.58758 51.4643 2.85029 51.7997 2.85029Z" fill="#8B9AC9"/>
<path d="M41.0347 10.7314C40.9006 10.7315 40.7703 10.6888 40.664 10.6099C40.5577 10.531 40.4815 10.4203 40.4471 10.2952C40.4127 10.17 40.4221 10.0374 40.4739 9.91792C40.5257 9.79848 40.617 9.69894 40.7334 9.63483L42.8368 8.47622C43.0724 8.34669 43.2757 8.16871 43.4322 7.95488C43.5888 7.74105 43.6948 7.4966 43.7428 7.23882L43.8564 6.63261C43.9759 5.99018 44.3119 5.40397 44.8122 4.96536C45.9391 4.00919 47.2044 3.21719 48.5683 2.61445C48.7162 2.55278 48.8834 2.55039 49.0331 2.60782C49.1828 2.66524 49.3028 2.77777 49.3666 2.92065C49.4304 3.06353 49.4329 3.22506 49.3735 3.3697C49.314 3.51434 49.1976 3.63024 49.0497 3.69191C47.8083 4.24662 46.6549 4.96916 45.6242 5.8378C45.3239 6.102 45.1225 6.4548 45.0515 6.84116L44.9381 7.44737C44.8586 7.87402 44.6831 8.27859 44.424 8.63248C44.1648 8.98637 43.8284 9.28094 43.4384 9.49535L41.3345 10.6543C41.2433 10.7048 41.1399 10.7314 41.0347 10.7314Z" fill="#8B9AC9"/>
<path d="M43.0652 15.1245C42.9187 15.1245 42.7771 15.0733 42.6665 14.9803C42.556 14.8873 42.484 14.7589 42.4638 14.6186C42.4436 14.4784 42.4766 14.3358 42.5567 14.2172C42.6368 14.0986 42.7585 14.012 42.8995 13.9733L45.2285 13.3337C45.4894 13.2624 45.7309 13.1366 45.9359 12.9651C46.1408 12.7936 46.3043 12.5807 46.4147 12.3414L46.675 11.7791C46.9499 11.1829 47.4212 10.6912 48.0155 10.3808C49.3463 9.71257 50.771 9.23583 52.2444 8.96569C52.3243 8.95013 52.4065 8.95024 52.4863 8.96602C52.5661 8.9818 52.6418 9.01292 52.7089 9.05754C52.776 9.10215 52.8331 9.15935 52.8769 9.22573C52.9206 9.29211 52.9501 9.3663 52.9636 9.44391C52.977 9.52152 52.9742 9.60095 52.9552 9.67748C52.9363 9.75401 52.9015 9.82607 52.8532 9.88937C52.8048 9.95268 52.7437 10.0059 52.6736 10.046C52.6035 10.086 52.5258 10.112 52.445 10.1225C51.1024 10.3746 49.8038 10.8101 48.5882 11.4159C48.2314 11.6031 47.9488 11.8992 47.7844 12.2579L47.5241 12.8206C47.3414 13.2167 47.0709 13.5691 46.7317 13.853C46.3925 14.1369 45.9928 14.3453 45.5609 14.4635L43.232 15.1029C43.1777 15.1176 43.1216 15.1248 43.0652 15.1245Z" fill="#8B9AC9"/>
<path d="M46.6727 20.0758C46.6272 20.0758 46.5816 20.0748 46.5358 20.0728L44.1168 19.9693C43.9565 19.9615 43.806 19.8928 43.6981 19.7781C43.5901 19.6634 43.5335 19.5122 43.5406 19.3573C43.5477 19.2025 43.618 19.0566 43.736 18.9516C43.854 18.8467 44.0102 18.7911 44.1706 18.797L46.5896 18.9004C46.8603 18.912 47.1305 18.8661 47.3809 18.766C47.6313 18.6658 47.856 18.5138 48.0391 18.3207L48.4699 17.8664C48.9255 17.3844 49.5334 17.0616 50.1988 16.9485C51.6798 16.7201 53.1874 16.7022 54.6738 16.8952C54.832 16.9202 54.9736 17.0046 55.0676 17.13C55.1617 17.2555 55.2006 17.4117 55.1758 17.5648C55.1511 17.7178 55.0647 17.8552 54.9356 17.947C54.8064 18.0387 54.6449 18.0774 54.4864 18.0546C53.1299 17.884 51.7552 17.9009 50.4037 18.1049C50.004 18.1736 49.639 18.3681 49.3657 18.6582L48.935 19.1133C48.6478 19.4168 48.2983 19.6591 47.9088 19.8249C47.5193 19.9906 47.0983 20.076 46.6727 20.0758Z" fill="#8B9AC9"/>
<defs>
<radialGradient id="paint0_radial_702_5205" cx="0" cy="0" r="1" gradientUnits="userSpaceOnUse" gradientTransform="translate(23.5057 19.787) scale(22.7586 21.9871)">
<stop stop-color="#F9A0A0"/>
<stop offset="1" stop-color="#FCD0BE"/>
</radialGradient>
<linearGradient id="paint1_linear_702_5205" x1="23.3689" y1="2.0408" x2="23.3689" y2="26.6868" gradientUnits="userSpaceOnUse">
<stop stop-color="#FF6185"/>
<stop offset="1" stop-color="#E2407A"/>
</linearGradient>
</defs>
</svg>
