<svg width="59" height="57" viewBox="0 0 59 57" fill="none" xmlns="http://www.w3.org/2000/svg">
<path d="M39.3027 55.3238C39.0724 40.1732 40.6215 23.0627 41.3372 16.0647C41.4266 15.1953 41.1725 14.3254 40.626 13.6293C40.0794 12.9333 39.2807 12.4625 38.39 12.3114C18.672 8.97728 5.48114 1.67676 5.48114 1.67676C5.48114 1.67676 4.58712 7.27969 10.3979 11.814L6.89645 12.6057C6.89645 12.6057 9.32412 15.7796 12.8256 17.507C12.8256 17.507 11.0688 32.4896 12.9308 44.9929L20.2315 45.3528L20.0082 55.3238H39.3027Z" fill="url(#paint0_radial_702_7222)"/>
<path d="M30.433 45.8555L20.2308 45.3525L20.0674 52.6452L30.7837 47.4778C30.9591 47.3933 31.1007 47.2551 31.1861 47.0847C31.2716 46.9143 31.2963 46.7213 31.2562 46.5359C31.2161 46.3506 31.1136 46.1832 30.9647 46.0601C30.8157 45.937 30.6288 45.8651 30.433 45.8555Z" fill="#C65454"/>
<path d="M25.6715 26.1865C25.6715 26.1865 24.6945 29.7586 29.8015 30.7155C30.0741 30.7637 30.3236 30.8947 30.5137 31.0894C30.7039 31.2841 30.8248 31.5323 30.8588 31.798L30.9756 32.7762C31.0057 33.0284 31.1308 33.2611 31.327 33.4299C31.5231 33.5988 31.7767 33.6921 32.0395 33.6921C32.3233 33.6918 32.5953 33.5827 32.7959 33.3887C32.9964 33.1948 33.1091 32.9318 33.1091 32.6577V31.319C33.1099 30.7914 33.256 30.2734 33.5325 29.8184C33.9008 29.2104 34.3369 28.114 34.0722 26.5639L25.6715 26.1865Z" fill="url(#paint1_linear_702_7222)"/>
<path d="M25.6719 26.1866C25.6719 26.1866 26.6895 23.2717 30.0835 23.2598C33.7276 23.2471 34.0733 26.5638 34.0733 26.5638C34.0733 26.5638 33.466 29.3524 29.6915 29.0368C26.1027 28.7367 25.6719 26.1866 25.6719 26.1866Z" fill="white"/>
<path d="M36.9892 26.1862C37.3246 26.1862 37.5965 25.9235 37.5965 25.5995C37.5965 25.2754 37.3246 25.0127 36.9892 25.0127C36.6538 25.0127 36.3818 25.2754 36.3818 25.5995C36.3818 25.9235 36.6538 26.1862 36.9892 26.1862Z" fill="url(#paint2_linear_702_7222)"/>
<path d="M36.9891 30.0569C37.6206 30.0569 38.1325 29.5624 38.1325 28.9523C38.1325 28.3422 37.6206 27.8477 36.9891 27.8477C36.3576 27.8477 35.8457 28.3422 35.8457 28.9523C35.8457 29.5624 36.3576 30.0569 36.9891 30.0569Z" fill="url(#paint3_linear_702_7222)"/>
<path d="M17.7021 26.857V25.9694C17.7021 25.5403 17.342 25.1924 16.8978 25.1924C16.4536 25.1924 16.0935 25.5403 16.0935 25.9694V26.857C16.0935 27.2861 16.4536 27.634 16.8978 27.634C17.342 27.634 17.7021 27.2861 17.7021 26.857Z" fill="#C65454"/>
<path d="M30.9629 26.9093V25.9937C30.9629 25.5512 30.5915 25.1924 30.1334 25.1924C29.6753 25.1924 29.3039 25.5512 29.3039 25.9937V26.9093C29.3039 27.3518 29.6753 27.7106 30.1334 27.7106C30.5915 27.7106 30.9629 27.3518 30.9629 26.9093Z" fill="#C65454"/>
<path d="M27.816 39.2412C27.6911 39.2413 27.5691 39.2042 27.4669 39.1349C27.3646 39.0657 27.2869 38.9676 27.2444 38.8541C27.2022 38.745 26.1454 36.1198 22.5244 36.1198C18.8455 36.1198 17.487 38.429 17.4309 38.5274C17.3544 38.6643 17.2247 38.7663 17.0703 38.8109C16.916 38.8554 16.7496 38.8389 16.6079 38.765C16.4661 38.691 16.3606 38.5657 16.3145 38.4166C16.2684 38.2675 16.2855 38.1067 16.362 37.9698C16.4305 37.8464 18.0916 34.9463 22.5244 34.9463C27.0188 34.9463 28.3326 38.3111 28.3862 38.4543C28.4195 38.5429 28.4302 38.638 28.4174 38.7315C28.4046 38.8249 28.3686 38.914 28.3126 38.9912C28.2566 39.0685 28.1822 39.1315 28.0956 39.175C28.009 39.2185 27.9129 39.2412 27.8153 39.2412H27.816Z" fill="#C65454"/>
<path d="M52.9609 19.0417C53.2963 19.0417 53.5682 18.779 53.5682 18.4549C53.5682 18.1309 53.2963 17.8682 52.9609 17.8682C52.6254 17.8682 52.3535 18.1309 52.3535 18.4549C52.3535 18.779 52.6254 19.0417 52.9609 19.0417Z" fill="#8B9AC9"/>
<path d="M38.4855 21.9933C38.3644 21.9934 38.2461 21.9584 38.1457 21.893C38.0453 21.8277 37.9675 21.7348 37.9221 21.6263C37.8768 21.5179 37.866 21.3988 37.8912 21.2844C37.9165 21.17 37.9765 21.0655 38.0636 20.9843C38.154 20.9004 40.3039 18.9086 42.687 17.7487C43.2021 17.4948 43.7974 17.4384 44.3538 17.5908C44.9101 17.7431 45.3863 18.0929 45.6869 18.5701L45.8134 18.7681C45.9486 18.9798 46.1568 19.1384 46.4013 19.2162C46.6457 19.2939 46.9108 19.2857 47.1496 19.193C48.0884 18.8322 49.0564 18.547 50.0437 18.3403C50.201 18.3082 50.3649 18.3375 50.4998 18.422C50.6346 18.5064 50.7293 18.639 50.7632 18.7908C50.797 18.9426 50.7672 19.1011 50.6803 19.2317C50.5934 19.3623 50.4565 19.4543 50.2995 19.4875C49.3778 19.6805 48.4742 19.9468 47.5978 20.2837C47.0937 20.4783 46.5347 20.4948 46.0193 20.3302C45.5038 20.1657 45.065 19.8306 44.7802 19.3841L44.6537 19.1859C44.5095 18.9623 44.2842 18.7985 44.0218 18.7265C43.7594 18.6545 43.4787 18.6795 43.2343 18.7965C41.0131 19.8776 38.9285 21.8098 38.9077 21.8292C38.7944 21.9349 38.6429 21.9938 38.4855 21.9933Z" fill="#8B9AC9"/>
<path d="M52.9611 28.9134C52.8833 28.9133 52.8062 28.8988 52.7341 28.8706C51.7296 28.4879 50.6908 28.1951 49.6309 27.9958C49.1357 27.9034 48.6917 27.6415 48.3802 27.2582C48.0688 26.875 47.9109 26.3961 47.9355 25.9095C47.9465 25.697 47.8755 25.4882 47.7363 25.3235C47.5971 25.1587 47.3995 25.0498 47.1818 25.0177C46.1188 24.8807 45.0442 24.847 43.9741 24.9171C43.8941 24.9221 43.8139 24.9117 43.7381 24.8865C43.6622 24.8613 43.5923 24.8219 43.5324 24.7705C43.4724 24.719 43.4235 24.6567 43.3886 24.5869C43.3538 24.5172 43.3335 24.4414 43.3291 24.3641C43.3246 24.2868 43.3361 24.2093 43.3628 24.1363C43.3894 24.0632 43.4308 23.996 43.4845 23.9385C43.5383 23.881 43.6032 23.8343 43.6757 23.8012C43.7482 23.7681 43.8267 23.7491 43.9068 23.7455C45.0592 23.6707 46.2164 23.7079 47.3611 23.8566C47.8757 23.9311 48.3434 24.1874 48.6736 24.576C49.0038 24.9645 49.173 25.4576 49.1484 25.9597C49.1378 26.1659 49.2045 26.3688 49.3362 26.5312C49.468 26.6937 49.6559 26.8048 49.8656 26.8441C51.0004 27.0578 52.1125 27.3717 53.1879 27.7819C53.3188 27.8328 53.4272 27.9261 53.4947 28.0459C53.5621 28.1656 53.5843 28.3043 53.5574 28.4381C53.5305 28.5719 53.4562 28.6925 53.3473 28.7792C53.2384 28.8658 53.1016 28.9132 52.9605 28.913L52.9611 28.9134Z" fill="#8B9AC9"/>
<path d="M51.6687 36.9765C51.5274 36.9768 51.3904 36.9294 51.2815 36.8424C50.4447 36.1832 49.5469 35.5995 48.5996 35.0989C48.1568 34.8656 47.816 34.486 47.6396 34.0295C47.4632 33.5731 47.4631 33.0705 47.6393 32.614C47.7165 32.4148 47.7144 32.195 47.6335 31.9972C47.5525 31.7994 47.3985 31.6376 47.2011 31.5432C46.2312 31.1012 45.2178 30.7543 44.1762 30.5075C44.0202 30.4686 43.8866 30.3714 43.8048 30.2373C43.723 30.1032 43.6997 29.9433 43.74 29.7926C43.7803 29.6419 43.8809 29.5128 44.0197 29.4338C44.1585 29.3548 44.3241 29.3323 44.48 29.3712C45.6015 29.6378 46.6925 30.0126 47.7365 30.4899C48.2036 30.7116 48.5689 31.0928 48.7616 31.5598C48.9543 32.0268 48.9608 32.5463 48.7797 33.0177C48.7049 33.211 48.7047 33.4239 48.7791 33.6173C48.8536 33.8107 48.9978 33.9717 49.1853 34.0707C50.1995 34.6069 51.1605 35.232 52.0563 35.9381C52.1526 36.0151 52.2218 36.119 52.2547 36.2354C52.2876 36.3519 52.2825 36.4754 52.2401 36.589C52.1977 36.7025 52.1201 36.8007 52.0178 36.8701C51.9156 36.9395 51.7936 36.9765 51.6687 36.9765Z" fill="#8B9AC9"/>
<defs>
<radialGradient id="paint0_radial_702_7222" cx="0" cy="0" r="1" gradientUnits="userSpaceOnUse" gradientTransform="translate(30.9396 27.6341) scale(10.7878 10.4221)">
<stop stop-color="#F97D7D"/>
<stop offset="1" stop-color="#FCD0BE"/>
</radialGradient>
<linearGradient id="paint1_linear_702_7222" x1="29.8754" y1="23.1804" x2="29.8754" y2="37.4016" gradientUnits="userSpaceOnUse">
<stop stop-color="#FF6185"/>
<stop offset="1" stop-color="#E2407A"/>
</linearGradient>
<linearGradient id="paint2_linear_702_7222" x1="36.9892" y1="23.1801" x2="36.9892" y2="37.4013" gradientUnits="userSpaceOnUse">
<stop stop-color="#FF6185"/>
<stop offset="1" stop-color="#E2407A"/>
</linearGradient>
<linearGradient id="paint3_linear_702_7222" x1="36.9891" y1="23.18" x2="36.9891" y2="37.4012" gradientUnits="userSpaceOnUse">
<stop stop-color="#FF6185"/>
<stop offset="1" stop-color="#E2407A"/>
</linearGradient>
</defs>
</svg>
