<svg width="59" height="57" viewBox="0 0 59 57" fill="none" xmlns="http://www.w3.org/2000/svg">
<path d="M11.457 22.06C11.457 22.06 13.6588 16.1693 17.2722 12.4062L18.006 14.9153C18.006 14.9153 19.6436 13.2239 21.6758 12.4062L21.7843 15.9709L27.3782 15.1879L34.2614 29.4967L27.3341 32.3467L21.9283 34.5709L15.9171 25.3872L11.457 22.06Z" fill="url(#paint0_radial_702_6548)"/>
<path d="M26.1729 19.8949L35.9063 9.91708L38.3787 12.9723L46.3266 5.22363L49.1436 12.405L38.4197 19.0921L35.435 15.6489L26.1729 19.8949Z" fill="url(#paint1_linear_702_6548)"/>
<path d="M27.334 33.3582L36.2466 33.6223L34.2613 29.4951L27.334 32.3455V33.3582Z" fill="#C65454"/>
<path d="M20.6365 26.3854C20.4803 26.3773 20.3333 26.3113 20.2261 26.2011C20.119 26.0909 20.0601 25.945 20.0616 25.7938C20.0631 25.6427 20.1249 25.4979 20.2342 25.3897C20.3435 25.2815 20.4918 25.2182 20.6482 25.213C21.331 25.1525 21.978 24.8902 22.5011 24.4618C22.5613 24.4112 22.6311 24.3725 22.7068 24.3479C22.7824 24.3234 22.8623 24.3135 22.9419 24.3188C23.0215 24.324 23.0992 24.3444 23.1707 24.3787C23.2421 24.413 23.3058 24.4606 23.3583 24.5187C23.4107 24.5768 23.4507 24.6444 23.4761 24.7174C23.5015 24.7905 23.5118 24.8677 23.5063 24.9446C23.5009 25.0215 23.4798 25.0966 23.4442 25.1656C23.4087 25.2346 23.3595 25.2962 23.2993 25.3468C22.5656 25.9537 21.6501 26.318 20.6867 26.3862C20.6697 26.3866 20.653 26.3862 20.6365 26.3854Z" fill="#C65454"/>
<path d="M25.6826 24.1561L25.6632 24.1575C25.5023 24.1655 25.3447 24.1115 25.2251 24.0073C25.1055 23.9031 25.0336 23.7572 25.0252 23.6018C25.0169 23.4464 25.0728 23.2941 25.1807 23.1786C25.2885 23.063 25.4395 22.9935 25.6004 22.9855C25.6448 22.9823 26.4201 22.9169 27.2109 22.1792C27.268 22.1245 27.3358 22.0812 27.4104 22.0519C27.4849 22.0227 27.5648 22.008 27.6453 22.0088C27.7257 22.0096 27.8052 22.0259 27.8792 22.0566C27.9531 22.0874 28.0199 22.132 28.0758 22.188C28.1317 22.2439 28.1756 22.31 28.2048 22.3824C28.234 22.4549 28.2481 22.5322 28.2461 22.6099C28.2441 22.6877 28.2262 22.7642 28.1933 22.8352C28.1604 22.9062 28.1133 22.9701 28.0546 23.0233C26.9775 24.0282 25.8499 24.1442 25.6826 24.1561Z" fill="#C65454"/>
<path d="M19.8723 31.429L19.5836 28.1741C19.5019 27.2543 19.2308 26.3595 18.7861 25.5424C18.3415 24.7252 17.7322 24.0022 16.9942 23.4158L15.1515 21.9517L16.0191 19.9567C16.3033 19.3035 16.3473 18.5758 16.1436 17.8951C15.94 17.2143 15.501 16.6215 14.8999 16.2155L14.5367 15.9697C13.3224 17.9059 12.2916 19.944 11.457 22.0593L14.1691 24.0825L15.9171 25.3865L19.8723 31.429Z" fill="#C65454"/>
<path d="M27.3337 33.3588V35.541L17.8363 41.5864V27.2127C17.8363 26.7432 17.7303 26.2793 17.5255 25.8535C17.3208 25.4277 17.0224 25.0501 16.6511 24.7472L13.489 22.1687L14.7296 19.2625C14.903 18.8565 14.9202 18.4039 14.7782 17.9867C14.6362 17.5695 14.3444 17.2151 13.9555 16.9877L13.2067 16.5498L11.7954 18.459L9.64988 17.259C9.64988 17.259 7.32667 20.4097 6.29695 23.6398C6.18819 23.9823 6.18879 24.3485 6.29868 24.6907C6.40857 25.0329 6.62264 25.3351 6.91297 25.558L10.6277 28.416C10.991 28.6955 11.2832 29.0517 11.4817 29.4573C11.6802 29.8629 11.7799 30.3071 11.773 30.7557L11.5063 48.2527C11.4992 48.7201 11.612 49.1819 11.8347 49.5969C12.0574 50.0119 12.383 50.3672 12.7825 50.6309C13.182 50.8946 13.6429 51.0587 14.124 51.1083C14.6051 51.158 15.0915 51.0917 15.5396 50.9154L26.6433 44.8572L25.8534 55.0399H52.7839C52.7839 55.0399 48.4708 44.0982 43.8515 35.6825C43.563 35.1555 43.138 34.7097 42.6179 34.3888C42.0978 34.068 41.5004 33.8829 40.8841 33.8518L36.2471 33.623L27.3337 33.3588Z" fill="url(#paint2_linear_702_6548)"/>
<path d="M10.7433 17.8711L8.95591 22.3007C8.93669 22.3478 8.93657 22.4002 8.95557 22.4474C8.97458 22.4946 9.01131 22.5331 9.05844 22.5553C9.10556 22.5775 9.15961 22.5817 9.2098 22.567C9.25999 22.5524 9.30261 22.52 9.32917 22.4764L11.7952 18.4595L10.7433 17.8711Z" fill="#C65454"/>
<path d="M50.605 26.1508L49.8277 25.9428C49.5043 25.8563 49.1696 26.0394 49.08 26.3518C48.9905 26.6642 49.18 26.9876 49.5033 27.0741L50.2807 27.2821C50.6041 27.3686 50.9388 27.1855 51.0284 26.8731C51.1179 26.5607 50.9284 26.2373 50.605 26.1508Z" fill="#8B9AC9"/>
<path d="M26.761 11.8466H26.748C26.5869 11.8434 26.4338 11.7785 26.3223 11.6662C26.2109 11.5539 26.1501 11.4034 26.1535 11.2478C26.1969 9.74869 26.6111 8.28141 27.3616 6.9686C27.407 6.88591 27.4722 6.8149 27.5517 6.76151C27.6313 6.70812 27.723 6.67391 27.819 6.66172C27.9151 6.64952 28.0128 6.65971 28.104 6.69143C28.1951 6.72315 28.2771 6.77548 28.343 6.84404L29.5532 8.1014C30.2163 6.056 31.1217 4.09145 32.2514 2.24682C32.3341 2.11321 32.4682 2.01678 32.6244 1.97874C32.7018 1.9599 32.7822 1.95597 32.8611 1.96716C32.94 1.97835 33.0159 2.00445 33.0844 2.04397C33.1529 2.08349 33.2126 2.13565 33.2602 2.19748C33.3078 2.25931 33.3424 2.32959 33.3619 2.40431C33.3814 2.47904 33.3855 2.55674 33.3739 2.63298C33.3623 2.70923 33.3353 2.78252 33.2944 2.84868C32.0398 4.90418 31.0718 7.11078 30.4155 9.41122C30.3863 9.51153 30.33 9.60252 30.2523 9.67483C30.1747 9.74714 30.0785 9.79817 29.9736 9.82266C29.8688 9.84716 29.7591 9.84424 29.6558 9.81421C29.5525 9.78418 29.4594 9.72812 29.386 9.6518L28.0595 8.27323C27.6288 9.21975 27.3937 10.2385 27.3675 11.2721C27.3642 11.4254 27.2988 11.5714 27.1855 11.6788C27.0721 11.7862 26.9197 11.8464 26.761 11.8466Z" fill="#8B9AC9"/>
<path d="M46.3328 26.1518C46.2883 26.1517 46.244 26.147 46.2006 26.1377C43.8088 25.6246 41.7348 25.356 39.8601 25.3163C39.7597 25.3142 39.6613 25.288 39.5738 25.2402C39.4864 25.1923 39.4126 25.1242 39.3591 25.042C39.3056 24.9598 39.2741 24.8661 39.2673 24.7692C39.2605 24.6723 39.2787 24.5753 39.3203 24.4869L40.127 22.7724C38.7297 23.0201 37.3857 23.4942 36.1518 24.1746C36.0831 24.2137 36.007 24.2393 35.9281 24.25C35.8491 24.2607 35.7687 24.2563 35.6914 24.2369C35.5355 24.1979 35.402 24.1007 35.3203 23.9665C35.2386 23.8324 35.2153 23.6724 35.2557 23.5218C35.2961 23.3711 35.3968 23.2421 35.5356 23.1632C37.0695 22.2914 38.8794 21.7243 41.069 21.4304C41.1767 21.4159 41.2864 21.4297 41.3867 21.4702C41.487 21.5107 41.5743 21.5765 41.6393 21.6607C41.7043 21.7449 41.7447 21.8445 41.7563 21.9489C41.7679 22.0534 41.7503 22.1589 41.7053 22.2545L40.7996 24.1795C42.7072 24.3039 44.6014 24.5757 46.464 24.9924C46.6102 25.0235 46.7394 25.1057 46.8267 25.2233C46.914 25.3408 46.9533 25.4853 46.937 25.6291C46.9208 25.7729 46.8501 25.9059 46.7386 26.0024C46.627 26.0989 46.4825 26.1523 46.3328 26.1522V26.1518Z" fill="#8B9AC9"/>
<defs>
<radialGradient id="paint0_radial_702_6548" cx="0" cy="0" r="1" gradientUnits="userSpaceOnUse" gradientTransform="translate(16.5152 19.7056) scale(12.1613 11.749)">
<stop stop-color="#F97D7D"/>
<stop offset="1" stop-color="#FCD0BE"/>
</radialGradient>
<linearGradient id="paint1_linear_702_6548" x1="29.9563" y1="23.8702" x2="50.2678" y2="1.86487" gradientUnits="userSpaceOnUse">
<stop stop-color="#FF6185"/>
<stop offset="1" stop-color="#E2407A"/>
</linearGradient>
<linearGradient id="paint2_linear_702_6548" x1="27.8649" y1="28.3067" x2="32.9557" y2="66.1963" gradientUnits="userSpaceOnUse">
<stop stop-color="#FCD0BE"/>
<stop offset="1" stop-color="#EFA69A"/>
</linearGradient>
</defs>
</svg>
