<svg width="59" height="57" viewBox="0 0 59 57" fill="none" xmlns="http://www.w3.org/2000/svg">
<path d="M6.49591 4.11523C6.49591 4.11523 14.5477 6.82709 23.4593 10.4996L41.7977 40.3498C42.3631 45.0806 42.8063 50.1815 43.1136 55.3542H33.1811C33.1811 55.3542 31.5152 46.2855 25.967 38.6173C24.5529 36.7018 23.6655 34.4708 23.3878 32.1334C23.25 30.9335 23.2861 29.721 23.4949 28.5307L2.86724 26.3997C2.86724 26.3997 1.15346 16.4075 6.49591 4.11523Z" fill="url(#paint0_radial_702_7206)"/>
<path d="M15.8647 23.3994C10.1007 22.351 4.66285 21.6224 2.61624 21.3604C2.54301 24.5088 2.86716 26.4002 2.86716 26.4002L15.7047 27.7262C15.6464 26.2821 15.6999 24.8358 15.8647 23.3994Z" fill="#C46262"/>
<path d="M41.7418 40.3269C41.7418 40.3269 36.2227 39.4198 30.0633 42.0221L28.8154 43.2416C30.8158 47.0761 32.2836 51.1488 33.1811 55.3543H35.2506C35.2235 52.3366 34.8707 48.5699 33.6564 44.9907C33.4649 44.4212 33.4947 43.8038 33.7404 43.254C33.986 42.7042 34.4306 42.2598 34.991 42.0039C37.1092 41.0321 39.4011 40.4628 41.7418 40.3269Z" fill="#C46262"/>
<path d="M41.7972 40.3502C40.7184 31.3231 39.3959 23.7265 38.6929 19.9484C38.5406 19.1341 38.1989 18.3637 37.6936 17.6955C37.1882 17.0274 36.5324 16.4788 35.7755 16.0912C31.9674 14.1359 27.6181 12.213 23.4588 10.5C18.276 14.7158 16.4272 19.7112 15.8643 23.3994L24.0528 28.2354C23.823 29.4976 23.8824 30.968 24.0037 32.0814C24.2584 34.4212 24.9674 36.4519 26.3637 38.3802C27.4862 39.9318 32.2527 41.7231 32.2527 41.7231C36.108 40.2786 39.7947 40.3051 41.7972 40.3502Z" fill="url(#paint1_linear_702_7206)"/>
<path d="M32.2524 41.7229C31.7854 40.8442 31.2434 40.0047 30.632 39.2131C24.1394 30.8595 27.0944 25.9309 27.0944 25.9309C23.8401 24.9703 19.7774 24.1111 15.8648 23.3994C15.6999 24.8358 15.6462 26.2821 15.7043 27.7262L23.4958 28.5309C23.287 29.7212 23.2509 30.9338 23.3887 32.1337C23.6664 34.4711 24.5538 36.7021 25.9679 38.6176C27.0282 40.0927 27.98 41.6379 28.8164 43.2418C29.9051 42.6235 31.0564 42.1146 32.2524 41.7229Z" fill="#78859E"/>
<path d="M53.771 8.18965C54.1272 8.18965 54.416 7.91066 54.416 7.5665C54.416 7.22235 54.1272 6.94336 53.771 6.94336C53.4148 6.94336 53.126 7.22235 53.126 7.5665C53.126 7.91066 53.4148 8.18965 53.771 8.18965Z" fill="#8B9AC9"/>
<path d="M39.7898 12.1953C39.6707 12.1952 39.5542 12.1614 39.4549 12.0979C39.3555 12.0344 39.2777 11.9441 39.2311 11.8382C39.1844 11.7323 39.1711 11.6154 39.1927 11.5023C39.2142 11.3891 39.2698 11.2845 39.3524 11.2016L41.1354 9.41148C41.3391 9.20739 41.4939 8.96256 41.5888 8.6943C41.6837 8.42604 41.7165 8.14091 41.6848 7.85906L41.6119 7.20893C41.5352 6.52781 41.6939 5.84131 42.0631 5.25634C42.912 3.95889 43.9526 2.78825 45.1519 1.78152C45.2763 1.68872 45.4331 1.64612 45.5893 1.66268C45.7456 1.67924 45.8891 1.75367 45.9897 1.87033C46.0903 1.98698 46.1402 2.13677 46.1289 2.28822C46.1175 2.43967 46.0459 2.58099 45.929 2.68246C44.8332 3.6103 43.8797 4.68413 43.0973 5.87161C42.869 6.23471 42.7714 6.66057 42.8196 7.08286L42.8924 7.73333C42.9433 8.1857 42.8908 8.64337 42.7385 9.07397C42.5862 9.50457 42.3379 9.89759 42.011 10.2252L40.2282 12.0154C40.1714 12.0724 40.1034 12.1177 40.028 12.1486C39.9527 12.1795 39.8717 12.1954 39.7898 12.1953Z" fill="#8B9AC9"/>
<path d="M42.8512 16.3059C42.7141 16.3061 42.5809 16.2614 42.4734 16.1791C42.3659 16.0969 42.2904 15.9819 42.2592 15.8529C42.2279 15.7239 42.2427 15.5885 42.3013 15.4687C42.3598 15.3489 42.4586 15.2518 42.5815 15.1931L44.8865 14.0918C45.1497 13.9665 45.3812 13.7868 45.5646 13.5655C45.7479 13.3442 45.8786 13.0866 45.9475 12.811L46.1073 12.1749C46.2736 11.509 46.6632 10.915 47.2155 10.4854C48.0801 9.83204 49.0124 9.26675 49.9973 8.79852C50.0687 8.76425 50.1465 8.74391 50.226 8.73867C50.3056 8.73342 50.3855 8.74337 50.4611 8.76794C50.5367 8.79251 50.6065 8.83123 50.6666 8.88188C50.7268 8.93254 50.7759 8.99413 50.8114 9.06315C50.8469 9.13217 50.8679 9.20726 50.8734 9.28414C50.8788 9.36102 50.8685 9.43818 50.8431 9.51121C50.8176 9.58425 50.7776 9.65173 50.7251 9.7098C50.6727 9.76787 50.6089 9.8154 50.5375 9.84967C49.6296 10.2807 48.7702 10.8012 47.9729 11.4027C47.6309 11.6698 47.3901 12.0387 47.2878 12.4519L47.128 13.0878C47.0174 13.5301 46.8075 13.9436 46.5132 14.2989C46.2189 14.6543 45.8473 14.9427 45.4248 15.144L43.1198 16.2452C43.0363 16.2852 42.9444 16.3059 42.8512 16.3059Z" fill="#8B9AC9"/>
<path d="M47.4974 20.4399C47.3215 20.4399 47.1458 20.426 46.9722 20.3985L44.4346 19.9962C44.2757 19.9709 44.1336 19.8857 44.0397 19.7592C43.9458 19.6328 43.9077 19.4755 43.9338 19.3219C43.96 19.1683 44.0482 19.0311 44.1791 18.9403C44.31 18.8496 44.4728 18.8128 44.6318 18.8381L47.1691 19.2404C47.4586 19.2868 47.7552 19.2712 48.0377 19.1945C48.3203 19.1178 48.5819 18.9821 48.8041 18.7968L49.3174 18.3702C49.8541 17.9223 50.5292 17.6587 51.2373 17.6206C52.8249 17.5602 54.413 17.724 55.9516 18.1068C56.1067 18.1488 56.2382 18.2487 56.3171 18.3844C56.396 18.52 56.4159 18.6804 56.3723 18.8303C56.3288 18.9801 56.2255 19.1071 56.085 19.1833C55.9446 19.2596 55.7786 19.2788 55.6235 19.2367C54.2111 18.8916 52.7552 18.7421 51.2993 18.7926C50.8603 18.8173 50.4421 18.9815 50.1097 19.2595L49.5964 19.6864C49.0129 20.1726 48.268 20.44 47.4974 20.4399Z" fill="#8B9AC9"/>
<path d="M31.2365 13.8837C30.7775 13.6714 30.3155 13.4601 29.8507 13.25C23.2255 16.8224 21.8078 24.2627 21.7453 24.6091C21.7316 24.685 21.7336 24.7629 21.751 24.8381C21.7685 24.9133 21.8011 24.9845 21.847 25.0475C21.893 25.1106 21.9513 25.1643 22.0187 25.2055C22.0861 25.2468 22.1613 25.2749 22.2399 25.2881C22.3987 25.3147 22.5619 25.2794 22.6937 25.1898C22.8255 25.1002 22.9151 24.9637 22.9427 24.8103C22.9569 24.7288 24.4407 17.01 31.2365 13.8837Z" fill="#78859E"/>
<path d="M26.1999 27.1048C26.2519 27.059 31.4 22.6485 39.394 23.8756C39.3211 23.4509 39.2505 23.0445 39.1821 22.6564C35.13 22.0843 30.9966 22.8518 27.4526 24.8342C29.1742 22.2881 32.5115 18.3105 37.1711 17.1021C36.8252 16.7596 36.4343 16.4623 36.0085 16.2178C29.0135 18.5286 25.1938 26.1991 25.0206 26.5544C24.8776 26.8468 26.1999 27.1048 26.1999 27.1048Z" fill="#78859E"/>
<path d="M40.3045 29.4636C40.2427 29.0627 40.1814 28.6695 40.1205 28.2841C32.3719 28.1484 25.9876 32.9782 25.7032 33.1961C25.577 33.2929 25.4959 33.4342 25.4776 33.5888C25.4593 33.7434 25.5053 33.8988 25.6055 34.0206C25.7057 34.1425 25.8519 34.2208 26.012 34.2386C26.172 34.2563 26.3328 34.2118 26.4589 34.115C26.5259 34.0642 32.8958 29.2572 40.3045 29.4636Z" fill="#78859E"/>
<path d="M40.8056 32.8281C33.0504 33.9899 29.0601 39.2252 28.8895 39.4537C28.8428 39.5162 28.8092 39.5869 28.7908 39.6619C28.7724 39.7369 28.7695 39.8146 28.7821 39.8907C28.7948 39.9668 28.8229 40.0397 28.8648 40.1054C28.9066 40.171 28.9615 40.2279 29.0261 40.2731C29.0908 40.3182 29.164 40.3506 29.2416 40.3684C29.3193 40.3862 29.3997 40.389 29.4785 40.3768C29.5572 40.3645 29.6327 40.3374 29.7006 40.2969C29.7685 40.2565 29.8275 40.2035 29.8743 40.1411C29.9133 40.0891 33.7419 35.0897 40.9708 33.9913C40.9158 33.5984 40.8607 33.2107 40.8056 32.8281Z" fill="#78859E"/>
<defs>
<radialGradient id="paint0_radial_702_7206" cx="0" cy="0" r="1" gradientUnits="userSpaceOnUse" gradientTransform="translate(37.1596 18.9243) scale(28.2952 27.336)">
<stop stop-color="#F97D7D"/>
<stop offset="1" stop-color="#FCD0BE"/>
</radialGradient>
<linearGradient id="paint1_linear_702_7206" x1="15.8643" y1="26.1116" x2="41.7972" y2="26.1116" gradientUnits="userSpaceOnUse">
<stop stop-color="#F3F8FF"/>
<stop offset="1" stop-color="#C9D4E5"/>
</linearGradient>
</defs>
</svg>
