<svg width="59" height="57" viewBox="0 0 59 57" fill="none" xmlns="http://www.w3.org/2000/svg">
<path d="M27.7578 37.4004L37.3502 43.4287L35.6126 33.9023L40.8994 26.0078C40.8994 26.0078 45.5522 35.4001 49.2857 50.323C49.3976 50.7678 49.4036 51.2313 49.3032 51.6786C49.2027 52.126 48.9985 52.5454 48.7058 52.9054C48.4132 53.2654 48.0397 53.5565 47.6137 53.7567C47.1877 53.957 46.7201 54.0612 46.2463 54.0615H31.9692L27.7578 37.4004Z" fill="url(#paint0_linear_702_5107)"/>
<path d="M33.9202 41.273L27.7578 37.4004L31.9692 54.0607H35.2694C35.0195 49.0103 34.2756 43.6384 33.9202 41.273Z" fill="#C65454"/>
<path d="M25.5479 8.24023C25.5479 8.24023 27.7331 8.46941 29.327 9.682L26.5253 13.0886L25.5479 8.24023Z" fill="#C65454"/>
<path d="M37.5977 4.41567C41.5273 6.79944 49.8205 11.366 55.9703 11.5504C55.9703 11.5504 54.2901 15.5464 49.3783 15.5464L51.5757 17.1074C51.5757 17.1074 50.4131 19.0429 46.9225 19.1052C46.9225 19.1052 40.3305 28.8455 35.6127 33.9028L31.2181 30.8425L28.2452 34.9633C28.2452 34.9633 31.7403 43.0411 33.5446 54.0603H3.62207C3.62207 54.0603 4.41527 39.775 19.3907 20.2291L27.9384 10.254C29.626 8.47782 31.4331 6.67634 33.3596 4.84954C33.913 4.32796 34.632 4.00152 35.4008 3.92282C36.1696 3.84411 36.9435 4.01772 37.5977 4.41567Z" fill="url(#paint1_radial_702_5107)"/>
<path d="M31.2184 30.8435L26.6199 27.23C26.4702 27.1129 26.2838 27.0483 26.0911 27.0469C25.8985 27.0455 25.7111 27.1073 25.5596 27.2222C25.4081 27.3371 25.3014 27.4984 25.2572 27.6795C25.2129 27.8606 25.2335 28.0509 25.3158 28.2191C26.4129 30.4167 27.3908 32.668 28.2457 34.9637L31.2184 30.8435Z" fill="#C65454"/>
<path d="M34.9521 29.2115L29.9932 25.4957C29.9932 25.4957 31.3842 23.4149 33.3489 23.2021C33.3489 23.2021 34.691 23.352 35.5576 24.261C37.9115 26.7304 34.9521 29.2115 34.9521 29.2115Z" fill="#FC6B98"/>
<path d="M36.0201 24.1729C38.9456 26.7228 35.3532 29.5376 35.3532 29.5376L34.0253 28.536C34.4652 28.1142 35.7337 26.7187 35.0689 25.196C34.7121 24.3825 34.1138 23.6894 33.3496 23.204C34.1614 23.1165 35.0707 23.3448 36.0201 24.1729Z" fill="#464965"/>
<path d="M5.33587 9.41279C5.6713 9.41279 5.94322 9.15008 5.94322 8.82602C5.94322 8.50196 5.6713 8.23926 5.33587 8.23926C5.00044 8.23926 4.72852 8.50196 4.72852 8.82602C4.72852 9.15008 5.00044 9.41279 5.33587 9.41279Z" fill="#8B9AC9"/>
<path d="M14.0562 19.0124C13.9696 19.0123 13.884 18.9943 13.8053 18.9596L11.6014 17.9919C11.3547 17.8833 11.0863 17.8283 10.8152 17.831C10.5441 17.8337 10.2769 17.894 10.0326 18.0075L9.45766 18.2737C8.84883 18.5566 8.16025 18.637 7.4992 18.5024C6.03688 18.1804 4.63108 17.6537 3.32634 16.9391C3.18876 16.8591 3.08958 16.7297 3.05049 16.5792C3.01141 16.4287 3.0356 16.2694 3.11777 16.1361C3.19995 16.0028 3.33342 15.9064 3.48899 15.8679C3.64456 15.8295 3.80957 15.8521 3.94792 15.9309C5.14063 16.578 6.42263 17.0578 7.75533 17.3559C8.15296 17.436 8.56687 17.3869 8.93256 17.216L9.50763 16.9496C9.91203 16.7619 10.3542 16.6622 10.8029 16.6578C11.2515 16.6534 11.6957 16.7442 12.104 16.924L14.3078 17.8917C14.434 17.9472 14.5367 18.0428 14.5989 18.1626C14.6611 18.2823 14.6789 18.419 14.6495 18.55C14.6201 18.6809 14.5452 18.7982 14.4373 18.8823C14.3294 18.9664 14.1949 19.0123 14.0562 19.0124Z" fill="#8B9AC9"/>
<path d="M16.5517 14.8481C16.4154 14.8482 16.283 14.8038 16.176 14.7221L14.275 13.2733C14.0623 13.1109 13.8153 12.9956 13.5514 12.9356C13.2876 12.8756 13.0133 12.8723 12.7479 12.9261L12.1232 13.0518C11.4621 13.1859 10.7737 13.105 10.1651 12.8216C9.2381 12.3745 8.36135 11.8362 7.54883 11.2151C7.42651 11.1175 7.34855 10.9776 7.3316 10.8252C7.31466 10.6729 7.36007 10.5202 7.45814 10.3997C7.55621 10.2793 7.69915 10.2007 7.85641 10.1808C8.01367 10.1608 8.17277 10.2011 8.29969 10.293C9.0442 10.8631 9.84761 11.3575 10.6972 11.7683C11.0639 11.9374 11.4781 11.9845 11.8754 11.9024L12.5001 11.7767C12.9394 11.6877 13.3935 11.6931 13.8303 11.7925C14.2671 11.8919 14.676 12.0829 15.0279 12.3519L16.9288 13.8007C17.0279 13.8762 17.1002 13.9797 17.1356 14.0968C17.171 14.2138 17.1678 14.3387 17.1264 14.4539C17.085 14.5691 17.0074 14.669 16.9045 14.7396C16.8016 14.8103 16.6785 14.8482 16.5522 14.8481H16.5517Z" fill="#8B9AC9"/>
<path d="M19.9852 11.1648C19.8845 11.1649 19.7853 11.1408 19.6966 11.0947C19.6079 11.0485 19.5325 10.9818 19.4771 10.9004L18.1467 8.94601C17.9979 8.72698 17.8011 8.54221 17.5702 8.40481C17.3393 8.2674 17.0799 8.18071 16.8105 8.15086L16.1775 8.08012C15.5063 8.00581 14.8794 7.71904 14.3946 7.26451C13.3354 6.23856 12.437 5.0686 11.7278 3.7917C11.655 3.65308 11.6421 3.49222 11.692 3.34442C11.7418 3.19663 11.8504 3.07398 11.9937 3.00341C12.1371 2.93284 12.3036 2.92011 12.4566 2.96801C12.6097 3.01592 12.7368 3.12054 12.8101 3.25892C13.462 4.42075 14.2818 5.487 15.2448 6.42561C15.5368 6.69826 15.914 6.86996 16.3175 6.91396L16.9511 6.98505C17.3968 7.0345 17.8259 7.17802 18.2079 7.40544C18.5898 7.63286 18.9154 7.93862 19.1615 8.30108L20.4921 10.2555C20.5524 10.3439 20.5867 10.4465 20.5915 10.5522C20.5963 10.658 20.5715 10.7631 20.5195 10.8563C20.4675 10.9495 20.3904 11.0274 20.2964 11.0817C20.2023 11.136 20.0948 11.1647 19.9852 11.1648Z" fill="#8B9AC9"/>
<path d="M38.1899 18.5544C38.1686 18.5544 38.1473 18.5534 38.1262 18.5512C36.0171 18.339 35.2173 16.9204 35.0894 16.2C35.0613 16.0467 35.0973 15.889 35.1896 15.7614C35.2819 15.6338 35.4228 15.5469 35.5815 15.5198C35.7401 15.4926 35.9034 15.5274 36.0354 15.6166C36.1674 15.7057 36.2574 15.8419 36.2855 15.9951C36.3124 16.125 36.5882 17.2166 38.2523 17.3841C38.407 17.3997 38.5496 17.4721 38.6507 17.5863C38.7518 17.7004 38.8037 17.8477 38.7957 17.9978C38.7877 18.1478 38.7204 18.2892 38.6077 18.3928C38.4951 18.4963 38.3456 18.5542 38.19 18.5544H38.1899Z" fill="#C65454"/>
<path d="M43.1839 21.9563C42.5732 21.972 41.97 21.8236 41.4415 21.5276C40.913 21.2316 40.4799 20.7996 40.1905 20.2799C40.1216 20.1395 40.113 19.9785 40.1667 19.8321C40.2205 19.6857 40.3321 19.5658 40.4772 19.4988C40.6222 19.4318 40.7889 19.4231 40.9406 19.4746C41.0922 19.5261 41.2166 19.6336 41.2864 19.7736C41.4777 20.0927 41.7555 20.3553 42.0899 20.5332C42.4242 20.711 42.8025 20.7974 43.1839 20.783C43.345 20.783 43.4995 20.8448 43.6134 20.9548C43.7273 21.0649 43.7913 21.2141 43.7913 21.3697C43.7913 21.5253 43.7273 21.6746 43.6134 21.7846C43.4995 21.8947 43.345 21.9563 43.1839 21.9563Z" fill="#C65454"/>
<path d="M24.625 22.3251C25.0733 21.9737 25.4071 21.5048 25.5864 20.9747C25.7657 20.4445 25.7828 19.8757 25.6358 19.3363L25.5476 19.0133L27.7167 16.7086C28.2995 16.0892 28.694 15.3264 28.8565 14.5042C29.0191 13.682 28.9435 12.8324 28.638 12.049L27.9378 10.2549C24.9094 13.4325 22.0564 16.7622 19.3906 20.2299L20.1155 21.4856C20.3285 21.8548 20.6227 22.1746 20.9772 22.4224C21.3318 22.6702 21.7381 22.84 22.1678 22.92C22.5975 23 23.0401 22.9882 23.4646 22.8854C23.889 22.7827 24.2851 22.5914 24.625 22.3251Z" fill="#C65454"/>
<path d="M19.5898 18.2354L20.824 20.453C21.0296 20.8224 21.3664 21.1077 21.7724 21.2562C22.1785 21.4047 22.6264 21.4066 23.0337 21.2614C23.438 21.1172 23.7771 20.8404 23.9918 20.4794C24.2065 20.1183 24.2831 19.6959 24.2083 19.2858L24.1609 19.0266L26.9548 16.0697C27.3094 15.6943 27.5494 15.2313 27.6481 14.7321C27.7467 14.2328 27.7 13.717 27.5133 13.2418L25.5485 8.24023C25.5485 8.24023 21.6293 11.0507 19.4711 16.4214C19.3542 16.7141 19.3043 17.0278 19.3248 17.3409C19.3453 17.6541 19.4357 17.9592 19.5898 18.2354Z" fill="url(#paint2_linear_702_5107)"/>
<path d="M24.16 19.0262L23.5908 17.3467C23.7594 17.2341 23.9666 17.189 24.1689 17.221C24.3712 17.253 24.5528 17.3595 24.6754 17.5182L25.1772 18.1675L24.16 19.0262Z" fill="#C65454"/>
<defs>
<linearGradient id="paint0_linear_702_5107" x1="39.1105" y1="55.0605" x2="37.8231" y2="27.4867" gradientUnits="userSpaceOnUse">
<stop stop-color="#FCD0BE"/>
<stop offset="1" stop-color="#EFA69A"/>
</linearGradient>
<radialGradient id="paint1_radial_702_5107" cx="0" cy="0" r="1" gradientUnits="userSpaceOnUse" gradientTransform="translate(16.8374 17.9756) scale(15.5035 14.9779)">
<stop stop-color="#F97D7D"/>
<stop offset="1" stop-color="#FCD0BE"/>
</radialGradient>
<linearGradient id="paint2_linear_702_5107" x1="26.6801" y1="18.1309" x2="3.90591" y2="-8.03634" gradientUnits="userSpaceOnUse">
<stop stop-color="#FCD0BE"/>
<stop offset="1" stop-color="#EFA69A"/>
</linearGradient>
</defs>
</svg>
