<svg width="59" height="57" viewBox="0 0 59 57" fill="none" xmlns="http://www.w3.org/2000/svg">
<path d="M34.0212 20.6471V25.4319C34.0212 25.4319 28.5307 25.5879 27.0295 30.6683C26.8104 31.4368 26.5506 32.1939 26.2512 32.9366C25.7497 34.147 25.2482 36.3257 26.7529 38.5045L21.6806 44.9795C20.9961 45.6676 20.444 46.468 20.0503 47.3433C18.2649 51.216 21.2303 55.579 25.6183 55.579H49.6348C50.8203 55.5792 51.99 55.3165 53.0539 54.8111C54.1177 54.3057 55.0473 53.5712 55.7711 52.6641C56.4948 51.757 56.9934 50.7015 57.2284 49.5789C57.4634 48.4563 57.4286 47.2966 57.1266 46.1891C56.2994 43.1572 55.0628 39.7454 53.2198 36.5205C52.6843 35.5897 52.3831 34.5502 52.3405 33.4861C52.2525 31.0926 51.0194 26.423 43.0393 24.9165L43.3402 17.0371L34.0212 20.6471Z" fill="url(#paint0_linear_702_5156)"/>
<path d="M29.4572 46.7431L30.5346 44.2972C30.7982 43.7013 30.8647 43.0413 30.7251 42.4075C30.5856 41.7737 30.2467 41.197 29.755 40.7563C29.6463 40.6594 29.5448 40.5746 29.4541 40.502C29.3315 40.4038 29.2443 40.2706 29.205 40.1215C29.1658 39.9724 29.1765 39.8151 29.2356 39.6723C29.2909 39.5399 29.3849 39.4259 29.5061 39.3443C29.6274 39.2627 29.7706 39.2169 29.9183 39.2126C32.1681 39.1313 33.4236 38.1631 34.0969 37.3147C34.1342 37.2679 34.1537 37.21 34.1519 37.1509C34.1501 37.0919 34.1272 37.0352 34.0871 36.9906C34.0471 36.9459 33.9922 36.9161 33.9319 36.9061C33.8716 36.896 33.8096 36.9065 33.7564 36.9356C32.9642 37.3705 31.6169 37.7975 29.3808 37.7975C27.1572 37.7975 26.1869 36.8463 25.7744 35.8721C25.8651 36.8152 26.2018 37.7208 26.7531 38.5041L21.6808 44.98C20.9963 45.668 20.4442 46.4685 20.0505 47.3438C19.8878 47.6959 19.761 48.0624 19.6719 48.4382C21.249 48.8821 22.8567 49.2179 24.4828 49.4431C25.5041 49.5861 26.5457 49.3989 27.4454 48.9106C28.3451 48.4223 29.0524 47.6602 29.4572 46.7431Z" fill="#C65454"/>
<path d="M34.021 25.4323C37.4172 25.2709 40.4069 23.948 43.1525 21.9245L43.339 17.0391L34.0205 20.6475L34.021 25.4323Z" fill="#C65454"/>
<path d="M27.9281 1.4209C27.9281 1.4209 30.9103 4.3911 39.7709 4.57266C40.4918 4.58998 41.1842 4.84804 41.7303 5.30294C42.2764 5.75783 42.6425 6.38147 42.7664 7.06775C43.4722 10.8223 43.6477 14.6519 43.2878 18.452C43.2122 19.2058 42.8632 19.9094 42.3026 20.4388C41.7421 20.9681 41.0059 21.289 40.2242 21.3449L32.2392 21.9243C31.4524 21.9818 30.6626 21.8597 29.9336 21.5679C29.2046 21.2761 28.5569 20.8228 28.0427 20.2445C27.5285 19.6663 27.1622 18.9793 26.9735 18.2391C26.7848 17.4989 26.7789 16.7262 26.9563 15.9834C27.3386 14.4095 28.0417 12.9249 29.0244 11.6164L28.6956 8.50835C28.6956 8.50835 26.6944 7.95226 26.5117 5.85114L28.6956 5.9747C28.6956 5.9747 26.3939 4.40569 27.9281 1.4209Z" fill="url(#paint1_linear_702_5156)"/>
<path d="M22.9201 38.3178C23.9899 37.9857 25.6515 37.6888 27.3104 38.2586C27.4604 38.311 27.5979 38.3921 27.7145 38.4971C27.8311 38.6022 27.9246 38.7289 27.9891 38.8698C28.0537 39.0106 28.0881 39.1627 28.0903 39.3167C28.0924 39.4708 28.0622 39.6236 28.0016 39.7661L27.549 40.8258C28.3632 41.2062 29.0696 41.7719 29.6074 42.4743L27.713 46.3793C27.4704 46.8794 27.0484 47.2777 26.5251 47.5003C26.0019 47.7229 25.4128 47.7547 24.8671 47.5898C23.4701 47.1687 21.6032 46.4872 20.1435 45.5254C19.657 45.2102 19.2865 44.7542 19.085 44.2228C18.8836 43.6914 18.8616 43.112 19.0223 42.5678C19.279 41.724 19.8127 40.67 20.8947 39.5637C21.4504 38.9902 22.1471 38.5617 22.9201 38.3178Z" fill="url(#paint2_linear_702_5156)"/>
<path d="M23.2701 22.6279C19.1156 17.4644 12.7329 17.76 12.7329 17.76C12.7329 17.76 6.35097 17.4642 2.19563 22.6279C1.89707 23.0014 1.70513 23.444 1.639 23.9115C1.57286 24.3791 1.63483 24.8552 1.81873 25.2923L4.69342 32.1632H20.7723L23.647 25.2923C23.8309 24.8552 23.8929 24.3791 23.8268 23.9115C23.7606 23.444 23.5687 23.0014 23.2701 22.6279Z" fill="url(#paint3_linear_702_5156)"/>
<path d="M12.7331 29.4789C13.7037 29.4789 14.4906 28.7187 14.4906 27.7809C14.4906 26.8432 13.7037 26.083 12.7331 26.083C11.7624 26.083 10.9756 26.8432 10.9756 27.7809C10.9756 28.7187 11.7624 29.4789 12.7331 29.4789Z" fill="url(#paint4_linear_702_5156)"/>
<path d="M32.4672 11.0293H31.5175C31.1821 11.0293 30.9102 11.292 30.9102 11.6161C30.9102 11.9401 31.1821 12.2028 31.5175 12.2028H32.4672C32.8027 12.2028 33.0746 11.9401 33.0746 11.6161C33.0746 11.292 32.8027 11.0293 32.4672 11.0293Z" fill="#C65454"/>
<path d="M37.0629 11.0293H36.1132C35.7778 11.0293 35.5059 11.292 35.5059 11.6161C35.5059 11.9401 35.7778 12.2028 36.1132 12.2028H37.0629C37.3984 12.2028 37.6703 11.9401 37.6703 11.6161C37.6703 11.292 37.3984 11.0293 37.0629 11.0293Z" fill="#C65454"/>
<path d="M20.1385 25.226C20.0526 25.2261 19.9677 25.2085 19.8893 25.1745C19.8109 25.1404 19.741 25.0907 19.6841 25.0285C16.8543 21.9463 12.8017 22.0814 12.7602 22.0829C12.7412 22.0839 12.7222 22.0839 12.7031 22.0829C12.6653 22.0811 8.6167 21.947 5.788 25.0213C5.681 25.1376 5.53054 25.2081 5.36973 25.2173C5.20892 25.2264 5.05092 25.1735 4.9305 25.0701C4.81008 24.9668 4.7371 24.8214 4.72762 24.666C4.71813 24.5107 4.77292 24.358 4.87992 24.2417C8.00622 20.8442 12.3013 20.8955 12.7323 20.9096C13.1642 20.8958 17.4653 20.8438 20.592 24.2499C20.6696 24.3345 20.7203 24.4389 20.7379 24.5507C20.7556 24.6624 20.7394 24.7767 20.6915 24.8798C20.6435 24.9829 20.5658 25.0704 20.4675 25.1318C20.3693 25.1932 20.2548 25.2259 20.1378 25.226H20.1385Z" fill="white"/>
<path d="M13.3832 27.5401C13.2791 27.54 13.1767 27.5141 13.0859 27.4647C12.9951 27.4154 12.919 27.3443 12.8649 27.2583C12.8107 27.1724 12.7804 27.0744 12.7767 26.9738C12.7731 26.8733 12.7963 26.7735 12.8441 26.6841L16.0827 20.6205C16.1192 20.552 16.1694 20.4911 16.2303 20.4414C16.2912 20.3916 16.3617 20.354 16.4377 20.3305C16.5137 20.3071 16.5937 20.2983 16.6732 20.3048C16.7527 20.3112 16.8301 20.3327 16.9009 20.3681C16.9718 20.4034 17.0348 20.4519 17.0863 20.5107C17.1378 20.5696 17.1768 20.6377 17.201 20.7111C17.2253 20.7845 17.2343 20.8618 17.2277 20.9386C17.221 21.0154 17.1988 21.0901 17.1622 21.1586L13.9236 27.2222C13.8725 27.3181 13.795 27.3984 13.6996 27.4545C13.6043 27.5106 13.4948 27.5402 13.3832 27.5401Z" fill="url(#paint5_linear_702_5156)"/>
<path d="M27.5481 40.8256C26.7879 40.4832 25.9962 40.21 25.1834 40.0097C25.1381 39.9978 25.0984 39.9711 25.0713 39.9341C25.0442 39.897 25.0312 39.852 25.0347 39.8067C25.0383 39.7615 25.058 39.7188 25.0905 39.6861C25.1231 39.6534 25.1664 39.6326 25.2131 39.6275C25.9916 39.5436 27.1112 39.5381 28.0427 39.9778L27.5481 40.8256Z" fill="#C65454"/>
<path d="M25.4296 42.5587C25.4526 42.4792 25.5064 42.4114 25.5799 42.3692C25.6533 42.3271 25.7408 42.3139 25.824 42.3324C26.0517 42.3849 26.2752 42.4417 26.5008 42.5029C26.8256 42.5914 27.1488 42.6894 27.4703 42.7968C28.1319 43.012 28.7694 43.2909 29.3732 43.6293L28.6741 44.5889C28.1865 44.2126 27.6613 43.8841 27.1062 43.6085C26.8229 43.4647 26.5337 43.3281 26.2386 43.1986C26.0376 43.1108 25.8318 43.025 25.6272 42.9447C25.5509 42.9152 25.4884 42.8596 25.4518 42.7885C25.4153 42.7173 25.4072 42.6356 25.4291 42.5591L25.4296 42.5587Z" fill="#C65454"/>
<path d="M24.265 44.6015C24.2901 44.5209 24.3468 44.4531 24.4229 44.4124C24.4991 44.3717 24.5887 44.3613 24.6726 44.3835C24.9229 44.4489 25.167 44.5195 25.414 44.5954C25.7617 44.7028 26.1071 44.8213 26.4501 44.9508C27.1594 45.2108 27.8347 45.5504 28.462 45.9626L27.7002 46.8766C27.4556 46.6654 27.1967 46.4702 26.925 46.2925C26.6444 46.1121 26.3512 45.9416 26.0494 45.7803C25.7476 45.6191 25.4356 45.4704 25.1195 45.3287C24.8961 45.2281 24.6669 45.1312 24.4394 45.041C24.3633 45.0107 24.3017 44.9542 24.2664 44.8824C24.2311 44.8106 24.2247 44.7287 24.2485 44.6526L24.265 44.6015Z" fill="#C65454"/>
<path d="M46.4244 35.3546C43.764 38.7324 40.0323 37.8901 37.9885 37.0525C37.9154 37.0213 37.8331 37.0168 37.7569 37.0398C37.6807 37.0627 37.6156 37.1117 37.5739 37.1775C37.5322 37.2433 37.5166 37.3215 37.5301 37.3975C37.5436 37.4736 37.5852 37.5423 37.6471 37.591C38.6309 38.3966 40.3056 39.2417 42.8815 39.0013C45.8329 38.726 46.755 36.9149 47.0342 35.6207C47.0495 35.5471 47.0386 35.4707 47.0031 35.4039C46.9677 35.3371 46.9098 35.2839 46.839 35.253C46.7682 35.2221 46.6886 35.2154 46.6133 35.2338C46.538 35.2523 46.4714 35.2948 46.4244 35.3546Z" fill="#C65454"/>
<path d="M47.3513 47.9332C47.0109 47.779 46.6523 47.6657 46.2834 47.5957C46.5114 47.3757 46.7127 47.1312 46.8833 46.867C49.1187 43.4072 46.0387 36.9404 45.9065 36.667L44.8058 37.1632C44.8353 37.2246 47.7427 43.3204 45.8528 46.2457C45.4034 46.9242 44.6968 47.4056 43.8843 47.5869L43.8749 47.5884V47.5894C43.3733 47.7137 42.8577 47.778 42.3397 47.781C41.6704 47.7961 41.1675 47.477 40.7863 46.817C40.5199 46.3521 40.1264 45.9669 39.6488 45.7034C39.1711 45.4399 38.6277 45.3084 38.0779 45.3231C37.5892 45.3425 37.1275 45.5445 36.7899 45.8863C36.4524 46.2282 36.2654 46.6834 36.2685 47.1558V47.781H34.1944C33.4692 47.781 32.7737 48.0593 32.2609 48.5547C31.7481 49.0502 31.46 49.7221 31.46 50.4228V55.5788H32.6747V53.7418L36.0024 53.5326C36.0961 53.5267 36.1839 53.4867 36.248 53.4205C36.3122 53.3544 36.3479 53.2672 36.3479 53.1765C36.348 53.0859 36.3123 52.9986 36.2481 52.9325C36.1839 52.8663 36.0961 52.8263 36.0024 52.8205L32.6747 52.6112V51.628L36.0005 51.4369C36.0945 51.4314 36.1827 51.3914 36.2472 51.3252C36.3117 51.259 36.3476 51.1715 36.3476 51.0806V51.041C36.3476 50.9501 36.3117 50.8626 36.2472 50.7964C36.1827 50.7302 36.0945 50.6903 36.0005 50.6848L32.6747 50.4937V50.4233C32.6747 50.0339 32.8349 49.6605 33.1199 49.3852C33.4049 49.1099 33.7914 48.9552 34.1944 48.9552H36.8762C37.0372 48.9552 37.1917 48.8934 37.3056 48.7833C37.4195 48.6733 37.4835 48.524 37.4835 48.3684V47.1565C37.4839 47.0692 37.5021 46.9827 37.5371 46.9022C37.5722 46.8217 37.6233 46.7486 37.6876 46.6872C37.752 46.6259 37.8282 46.5774 37.912 46.5446C37.9958 46.5117 38.0855 46.4952 38.1759 46.496C38.4932 46.4982 38.8041 46.5822 39.0765 46.7392C39.349 46.8963 39.5731 47.1207 39.7259 47.3894C40.3285 48.4331 41.2434 48.9763 42.3619 48.955C42.9921 48.9604 43.6198 48.8787 44.226 48.7123C45.1277 48.453 46.0887 48.4575 46.9879 48.725C47.1651 48.7926 47.3339 48.8793 47.4911 48.9834C47.5662 49.0349 47.6573 49.0601 47.7492 49.0548C47.8412 49.0495 47.9285 49.0141 47.9968 48.9543L48.0041 48.9478C48.0475 48.9094 48.082 48.8625 48.1052 48.8103C48.1285 48.7581 48.1401 48.7017 48.1392 48.6449C48.1382 48.588 48.1249 48.532 48.0999 48.4805C48.0749 48.429 48.039 48.3832 47.9944 48.3461C47.7969 48.1853 47.5812 48.0468 47.3513 47.9332Z" fill="#C65454"/>
<path d="M37.1092 15.3023C37.0263 15.1689 36.892 15.0728 36.7358 15.0351C36.5796 14.9974 36.4143 15.0211 36.2763 15.1011C35.8667 15.3321 35.5203 15.6545 35.2661 16.0412C33.5709 15.5423 31.8084 15.8689 31.7275 15.8845C31.6493 15.8995 31.5749 15.9292 31.5085 15.972C31.4422 16.0148 31.3852 16.0698 31.3408 16.1338C31.2965 16.1979 31.2656 16.2697 31.25 16.3453C31.2344 16.4209 31.2344 16.4987 31.2499 16.5743C31.2654 16.6499 31.2962 16.7218 31.3405 16.7859C31.3847 16.85 31.4417 16.905 31.508 16.9479C31.5743 16.9907 31.6486 17.0205 31.7269 17.0356C31.8051 17.0507 31.8856 17.0507 31.9639 17.0357C31.9802 17.0325 33.4675 16.7559 34.8542 17.1464C34.7956 17.5314 34.8192 17.924 34.9236 18.2999C34.9457 18.3744 34.9828 18.4439 35.0328 18.5045C35.0828 18.565 35.1448 18.6154 35.2151 18.6527C35.2853 18.69 35.3626 18.7134 35.4423 18.7218C35.522 18.7301 35.6026 18.723 35.6795 18.7011C35.7564 18.6792 35.8281 18.6427 35.8903 18.5939C35.9525 18.5451 36.0042 18.4848 36.0422 18.4166C36.0802 18.3484 36.1039 18.2736 36.1118 18.1965C36.1198 18.1194 36.1118 18.0416 36.0885 17.9675C35.9908 17.6144 36.0176 17.2399 36.1646 16.9032C36.3116 16.5664 36.5705 16.2865 36.9004 16.1076C36.9689 16.068 37.0286 16.0158 37.0762 15.9538C37.1238 15.8919 37.1582 15.8215 37.1776 15.7467C37.197 15.6719 37.2009 15.5942 37.1892 15.5179C37.1774 15.4417 37.1503 15.3684 37.1092 15.3023Z" fill="#C65454"/>
<defs>
<linearGradient id="paint0_linear_702_5156" x1="38.4541" y1="5.86041" x2="38.4541" y2="58.2835" gradientUnits="userSpaceOnUse">
<stop stop-color="#FCD0BE"/>
<stop offset="1" stop-color="#EFA69A"/>
</linearGradient>
<linearGradient id="paint1_linear_702_5156" x1="34.9923" y1="5.86086" x2="34.9923" y2="58.2839" gradientUnits="userSpaceOnUse">
<stop stop-color="#FCD0BE"/>
<stop offset="1" stop-color="#EFA69A"/>
</linearGradient>
<linearGradient id="paint2_linear_702_5156" x1="24.2596" y1="-167.543" x2="24.2596" y2="-86.302" gradientUnits="userSpaceOnUse">
<stop stop-color="#FCD0BE"/>
<stop offset="1" stop-color="#EFA69A"/>
</linearGradient>
<linearGradient id="paint3_linear_702_5156" x1="12.7329" y1="18.1787" x2="12.7329" y2="35.5993" gradientUnits="userSpaceOnUse">
<stop stop-color="#CACAEA"/>
<stop offset="1" stop-color="#B6B6DD"/>
</linearGradient>
<linearGradient id="paint4_linear_702_5156" x1="16.5931" y1="20.9441" x2="11.777" y2="30.0834" gradientUnits="userSpaceOnUse">
<stop stop-color="#FF6185"/>
<stop offset="1" stop-color="#E2407A"/>
</linearGradient>
<linearGradient id="paint5_linear_702_5156" x1="16.6633" y1="20.9807" x2="11.8472" y2="30.12" gradientUnits="userSpaceOnUse">
<stop stop-color="#FF6185"/>
<stop offset="1" stop-color="#E2407A"/>
</linearGradient>
</defs>
</svg>
