<svg width="59" height="57" viewBox="0 0 59 57" fill="none" xmlns="http://www.w3.org/2000/svg">
<path d="M18.6367 6.50499C21.861 5.84916 27.6642 4.37319 31.5387 1.67676C31.5387 1.67676 33.3794 5.32778 29.6981 8.35079H31.9989C31.9989 8.35079 32.1829 10.4848 30.4344 11.5517L29.9239 23.8493H16.2617C16.2617 23.8493 15.678 16.1447 16.07 9.39372C16.1097 8.70663 16.3827 8.05133 16.8466 7.52916C17.3106 7.00699 17.9397 6.64704 18.6367 6.50499Z" fill="url(#paint0_linear_702_7038)"/>
<path d="M19.9189 23.8486V29.3532L13.3095 32.9711C12.4861 33.486 11.8785 34.2664 11.595 35.1735C9.58178 41.7681 8.10872 48.5054 7.18945 55.3232H41.318C41.318 55.3232 40.8757 51.7178 39.9841 47.0706L31.4105 30.2298L27.3895 28.4997V23.8486H19.9189Z" fill="url(#paint1_radial_702_7038)"/>
<path d="M16.1873 51.0078L14.3687 51.097L13.8877 55.323H16.1873V51.0078Z" fill="#C65454"/>
<path d="M39.9841 47.0713C39.9841 47.0713 30.7551 54.2174 15.4502 52.5629V50.4578L39.9841 47.0713Z" fill="#C65454"/>
<path d="M36.4125 33.6887C36.219 33.1916 35.9252 32.7366 35.5481 32.3501C35.1711 31.9637 34.7183 31.6535 34.2161 31.4375L31.4105 30.2305C29.8487 32.5353 25.0843 38.3292 15.6019 40.2646L15.2627 43.2444L16.1918 51.216C20.4745 51.4076 31.4584 51.3991 39.9842 47.0713C39.1697 42.8281 37.9812 37.7169 36.4125 33.6887Z" fill="url(#paint2_linear_702_7038)"/>
<path d="M27.3896 23.8486H19.9189V29.3532L27.3896 25.7935V23.8486Z" fill="#C65454"/>
<path d="M49.187 21.4699C49.5432 21.4699 49.832 21.1909 49.832 20.8468C49.832 20.5026 49.5432 20.2236 49.187 20.2236C48.8308 20.2236 48.542 20.5026 48.542 20.8468C48.542 21.1909 48.8308 21.4699 49.187 21.4699Z" fill="#8B9AC9"/>
<path d="M35.0142 26.0318C34.9006 26.0318 34.7893 26.0009 34.693 25.9428C34.5966 25.8847 34.5191 25.8017 34.4691 25.7031C34.4192 25.6046 34.3988 25.4945 34.4104 25.3853C34.4219 25.2762 34.4649 25.1724 34.5345 25.0856L36.1098 23.1221C36.2899 22.8983 36.4168 22.6389 36.4816 22.3624C36.5464 22.0859 36.5475 21.7991 36.4848 21.5221L36.341 20.8825C36.1894 20.2134 36.2711 19.5146 36.5733 18.8949C37.2744 17.5174 38.18 16.2462 39.2613 15.1215C39.3735 15.0098 39.527 14.9458 39.6881 14.9434C39.8491 14.9411 40.0046 15.0007 40.1202 15.109C40.2358 15.2174 40.3021 15.3657 40.3045 15.5213C40.3069 15.6769 40.2453 15.8271 40.1331 15.9388C39.1457 16.9738 38.316 18.1393 37.669 19.4004C37.4823 19.7849 37.4325 20.2183 37.5274 20.6331L37.6712 21.2727C37.7718 21.7172 37.7701 22.1777 37.6661 22.6215C37.5621 23.0653 37.3584 23.4817 37.0694 23.841L35.4941 25.8045C35.4374 25.8752 35.3646 25.9325 35.2814 25.9719C35.1982 26.0113 35.1068 26.0318 35.0142 26.0318Z" fill="#8B9AC9"/>
<path d="M38.8449 29.23C38.7077 29.2302 38.5744 29.1856 38.4668 29.1033C38.3592 29.0211 38.2836 28.9061 38.2523 28.777C38.221 28.6479 38.2359 28.5124 38.2945 28.3926C38.3531 28.2727 38.452 28.1756 38.575 28.1169L40.8802 27.0157C41.1434 26.8904 41.3749 26.7107 41.5582 26.4893C41.7416 26.268 41.8723 26.0104 41.9412 25.7348L42.101 25.099C42.2674 24.433 42.6572 23.8389 43.2095 23.4092C44.0742 22.756 45.0064 22.1907 45.9913 21.7224C46.1356 21.6532 46.3025 21.6421 46.4552 21.6917C46.6078 21.7414 46.7339 21.8475 46.8055 21.9869C46.8772 22.1263 46.8886 22.2875 46.8373 22.435C46.7859 22.5825 46.676 22.7043 46.5317 22.7735C45.6237 23.2046 44.7642 23.7251 43.9668 24.3266C43.6251 24.5939 43.3843 24.9627 43.2819 25.3757L43.122 26.0118C43.0114 26.4541 42.8015 26.8675 42.5072 27.2228C42.2129 27.5781 41.8414 27.8666 41.419 28.0678L39.1142 29.1689C39.0305 29.209 38.9383 29.2299 38.8449 29.23Z" fill="#8B9AC9"/>
<path d="M44.2828 34.3433C44.1068 34.3433 43.9311 34.3294 43.7574 34.3019L41.2199 33.8996C41.1412 33.8871 41.0658 33.8597 40.998 33.8191C40.9302 33.7784 40.8714 33.7253 40.8249 33.6627C40.7784 33.6001 40.7451 33.5292 40.7269 33.4542C40.7087 33.3792 40.706 33.3014 40.719 33.2254C40.7319 33.1493 40.7602 33.0765 40.8023 33.011C40.8444 32.9455 40.8994 32.8887 40.9642 32.8438C41.029 32.7988 41.1023 32.7667 41.18 32.7491C41.2576 32.7316 41.3381 32.729 41.4168 32.7415L43.9543 33.1438C44.2438 33.1901 44.5403 33.1744 44.8228 33.0978C45.1053 33.0212 45.3669 32.8855 45.5892 32.7004L46.1026 32.2734C46.6394 31.8257 47.3144 31.5622 48.0224 31.524C49.1191 31.48 50.2177 31.5454 51.3005 31.7191C51.3793 31.7315 51.4547 31.7587 51.5226 31.7993C51.5904 31.8398 51.6493 31.8928 51.6959 31.9554C51.7426 32.0179 51.776 32.0887 51.7943 32.1637C51.8126 32.2387 51.8154 32.3164 51.8026 32.3925C51.7898 32.4686 51.7617 32.5414 51.7197 32.607C51.6778 32.6725 51.6229 32.7295 51.5581 32.7745C51.4934 32.8195 51.4202 32.8518 51.3425 32.8695C51.2649 32.8872 51.1844 32.8899 51.1057 32.8776C50.1077 32.7171 49.0954 32.6562 48.0845 32.6959C47.6455 32.7204 47.2273 32.8846 46.895 33.1628L46.3815 33.5897C45.7981 34.0759 45.0533 34.3433 44.2828 34.3433Z" fill="#8B9AC9"/>
<path d="M24.2592 20.54C23.8376 20.5403 23.4231 20.4354 23.0558 20.2354L22.9944 20.2018C22.8394 20.1171 22.6671 20.0659 22.4896 20.0518C22.3121 20.0377 22.1335 20.061 21.9662 20.1202L20.9811 20.468C20.8308 20.5176 20.6663 20.5082 20.5231 20.442C20.3798 20.3758 20.269 20.258 20.2146 20.1139C20.1601 19.9698 20.1662 19.8108 20.2317 19.6709C20.2971 19.5311 20.4166 19.4216 20.5646 19.3659L21.5499 19.0179C21.8823 18.9003 22.2372 18.8539 22.59 18.882C22.9428 18.91 23.285 19.0118 23.5931 19.1804L23.6543 19.2139C23.8408 19.3152 24.0514 19.368 24.2654 19.3671C24.4794 19.3662 24.6895 19.3116 24.8751 19.2087C25.1941 19.0298 25.5511 18.9233 25.919 18.8974C26.287 18.8714 26.6562 18.9266 26.9987 19.0588L27.3928 19.2097C27.5426 19.267 27.6626 19.3795 27.7265 19.5224C27.7905 19.6653 27.793 19.8268 27.7336 19.9715C27.6743 20.1162 27.5578 20.2321 27.41 20.2939C27.2621 20.3556 27.0949 20.3581 26.9451 20.3007L26.551 20.1499C26.3786 20.0834 26.1928 20.0556 26.0076 20.0687C25.8224 20.0818 25.6427 20.1353 25.4821 20.2253C25.1101 20.432 24.6884 20.5405 24.2592 20.54Z" fill="#C65454"/>
<path d="M37.457 36.6896C33.9385 39.5899 29.2627 41.4576 25.161 42.6343C29.7901 40.3391 33.5864 37.1337 36.2336 33.2964C36.0371 32.9212 35.7807 32.5783 35.4737 32.2803C32.8387 36.2726 29.0515 39.4708 24.2014 41.7922C20.0787 43.7659 16.4681 44.4449 15.4248 44.5403L15.4817 45.1227L15.5499 45.7075C15.6782 45.6955 15.8256 45.678 15.9921 45.655V45.6614C16.5684 45.6082 29.6681 44.3339 37.8285 37.9201C37.7081 37.5056 37.5842 37.0954 37.457 36.6896Z" fill="#78859E"/>
<path d="M15.9266 48.9423C19.1716 48.7496 30.6738 47.7105 39.0114 42.4702C38.9168 42.0641 38.8196 41.6571 38.7199 41.249C30.6443 46.5078 18.8754 47.5767 15.79 47.7705L15.9266 48.9423Z" fill="#78859E"/>
<path d="M16.1916 51.2158C16.1758 48.5309 16.0091 46.0045 15.76 43.5649C15.7553 43.5095 15.7376 43.4559 15.7084 43.4081C15.6792 43.3602 15.6392 43.3194 15.5914 43.2885C15.5436 43.2577 15.4891 43.2377 15.4322 43.2301C15.3753 43.2224 15.3173 43.2273 15.2625 43.2443L14.3682 51.0971C14.3682 51.0971 15.0373 51.1633 16.1916 51.2158Z" fill="#78859E"/>
<defs>
<linearGradient id="paint0_linear_702_7038" x1="23.9697" y1="12.9215" x2="23.9697" y2="58.9971" gradientUnits="userSpaceOnUse">
<stop stop-color="#FCD0BE"/>
<stop offset="1" stop-color="#EFA69A"/>
</linearGradient>
<radialGradient id="paint1_radial_702_7038" cx="0" cy="0" r="1" gradientUnits="userSpaceOnUse" gradientTransform="translate(38.4339 39.7546) scale(19.2186 18.5671)">
<stop stop-color="#F97D7D"/>
<stop offset="1" stop-color="#FCD0BE"/>
</radialGradient>
<linearGradient id="paint2_linear_702_7038" x1="21.6503" y1="43.7544" x2="42.0153" y2="36.0333" gradientUnits="userSpaceOnUse">
<stop stop-color="#F3F8FF"/>
<stop offset="1" stop-color="#C9D4E5"/>
</linearGradient>
</defs>
</svg>
